<svg width="20" height="20" viewBox="0 0 20 20" fill="none" xmlns="http://www.w3.org/2000/svg">
<path d="M17.4306 14.5428C17.4306 14.8284 17.3671 15.122 17.2323 15.4076C17.0974 15.6932 16.9228 15.963 16.6928 16.2169C16.304 16.6453 15.8756 16.9547 15.3916 17.153C14.9156 17.3514 14.3999 17.4545 13.8445 17.4545C13.0353 17.4545 12.1705 17.2641 11.2581 16.8754C10.3457 16.4866 9.43333 15.963 8.52887 15.3045C7.61649 14.638 6.7517 13.9002 5.92659 13.083C5.1094 12.2579 4.37156 11.3931 3.71305 10.4886C3.06248 9.58419 2.53885 8.67974 2.15803 7.78322C1.7772 6.87876 1.58679 6.01398 1.58679 5.18886C1.58679 4.64936 1.682 4.13367 1.87241 3.65764C2.06282 3.17368 2.36431 2.72938 2.7848 2.33269C3.29256 1.83286 3.84793 1.58691 4.43503 1.58691C4.65718 1.58691 4.87932 1.63452 5.07767 1.72972C5.28395 1.82493 5.46642 1.96774 5.60923 2.17402L7.44988 4.76837C7.59269 4.96672 7.69582 5.14919 7.76723 5.32374C7.83863 5.49035 7.8783 5.65696 7.8783 5.8077C7.8783 5.99811 7.82277 6.18852 7.71169 6.371C7.60855 6.55348 7.45781 6.74389 7.2674 6.9343L6.66443 7.56107C6.57716 7.64834 6.53749 7.75148 6.53749 7.87842C6.53749 7.94189 6.54542 7.99743 6.56129 8.0609C6.58509 8.12437 6.60889 8.17197 6.62476 8.21958C6.76757 8.48139 7.01352 8.82255 7.3626 9.23511C7.71963 9.64766 8.10045 10.0682 8.51301 10.4886C8.94143 10.9091 9.35399 11.2979 9.77448 11.6549C10.187 12.004 10.5282 12.242 10.7979 12.3848C10.8376 12.4007 10.8852 12.4245 10.9408 12.4483C11.0042 12.4721 11.0677 12.48 11.1391 12.48C11.274 12.48 11.3771 12.4324 11.4644 12.3452L12.0674 11.7501C12.2657 11.5518 12.4561 11.401 12.6386 11.3058C12.8211 11.1948 13.0035 11.1392 13.2019 11.1392C13.3526 11.1392 13.5113 11.171 13.6859 11.2424C13.8604 11.3138 14.0429 11.4169 14.2412 11.5518L16.8673 13.4162C17.0736 13.559 17.2164 13.7256 17.3037 13.924C17.383 14.1223 17.4306 14.3207 17.4306 14.5428Z" stroke="#56BED6" stroke-width="1.19007" stroke-miterlimit="10"/>
</svg>
