<svg width="26" height="26" viewBox="0 0 26 26" fill="none" xmlns="http://www.w3.org/2000/svg">
<path d="M13.1686 11.8096C13.0633 11.7991 12.9369 11.7991 12.821 11.8096C10.3138 11.7254 8.32288 9.6712 8.32288 7.143C8.32288 4.56212 10.4086 2.46582 13.0001 2.46582C15.5809 2.46582 17.6772 4.56212 17.6772 7.143C17.6667 9.6712 15.6757 11.7254 13.1686 11.8096Z" stroke="#56BED6" stroke-width="1.58013" stroke-linecap="round" stroke-linejoin="round"/>
<path d="M7.9014 15.6968C5.35212 17.4033 5.35212 20.1843 7.9014 21.8803C10.7983 23.8186 15.5492 23.8186 18.4461 21.8803C20.9954 20.1738 20.9954 17.3928 18.4461 15.6968C15.5598 13.769 10.8088 13.769 7.9014 15.6968Z" stroke="#56BED6" stroke-width="1.58013" stroke-linecap="round" stroke-linejoin="round"/>
</svg>
