<svg width="49" height="50" viewBox="0 0 49 50" fill="none" xmlns="http://www.w3.org/2000/svg">
<path d="M22.149 40.868H35.2937C42.8108 40.868 44.6799 38.9989 44.6799 31.4818C42.0794 31.4818 39.9868 29.3689 39.9868 26.7887C39.9868 24.1882 42.0794 22.0753 44.6799 22.0753V20.2061C44.6799 12.6891 42.8108 10.8199 35.2937 10.8199H22.3318V24.6148" stroke="#56BED6" stroke-width="3.04747" stroke-linecap="round" stroke-linejoin="round"/>
<path d="M22.3343 34.7729V40.8678H16.7067C13.6998 40.8678 11.9323 38.8158 9.98192 34.1024L9.61622 33.1882C12.0745 32.213 13.2732 29.3687 12.237 26.9104C11.2415 24.4521 8.41755 23.2738 5.93894 24.2896L5.59356 23.416C2.668 16.2646 3.68382 13.7657 10.8352 10.8198L16.1987 8.62561L22.3343 23.4972V28.6779" stroke="#56BED6" stroke-width="3.04747" stroke-linecap="round" stroke-linejoin="round"/>
<path d="M16.582 40.868H16.2366" stroke="#56BED6" stroke-width="3.04747" stroke-linecap="round" stroke-linejoin="round"/>
</svg>
