<svg width="43" height="43" viewBox="0 0 43 43" fill="none" xmlns="http://www.w3.org/2000/svg">
<path d="M8.89413 38.6895C8.41353 38.6877 7.93944 38.5783 7.50663 38.3693C6.9761 38.12 6.52727 37.7252 6.21235 37.2308C5.89744 36.7364 5.7294 36.1627 5.72778 35.5765V5.33609C5.7301 4.92344 5.81397 4.51532 5.97458 4.1352C6.13518 3.75507 6.36935 3.41045 6.66361 3.12115C6.95787 2.83185 7.30642 2.60357 7.68922 2.44945C8.07202 2.29533 8.4815 2.21841 8.89413 2.2231H33.798C34.6222 2.22777 35.4113 2.55725 35.9941 3.14004C36.5769 3.72282 36.9063 4.51191 36.911 5.33609V35.5765C36.8995 36.1399 36.7352 36.6895 36.4358 37.1668C36.1364 37.6441 35.7131 38.0312 35.211 38.2869C34.7089 38.5425 34.1468 38.6571 33.5847 38.6183C33.0225 38.5796 32.4815 38.389 32.0192 38.0669L21.7018 30.3289C21.6261 30.2683 21.532 30.2353 21.435 30.2353C21.338 30.2353 21.2439 30.2683 21.1682 30.3289L10.7619 38.0669C10.2219 38.4688 9.56728 38.687 8.89413 38.6895ZM8.89413 4.89138C8.77619 4.89138 8.66308 4.93823 8.57968 5.02163C8.49628 5.10503 8.44942 5.21814 8.44942 5.33609V35.5765C8.4488 35.6588 8.47197 35.7395 8.51615 35.809C8.56034 35.8784 8.62365 35.9336 8.69846 35.9679C8.76655 36.0145 8.84717 36.0395 8.92971 36.0395C9.01226 36.0395 9.09287 36.0145 9.16096 35.9679L19.5672 28.1943C20.1083 27.7956 20.7629 27.5805 21.435 27.5805C22.1072 27.5805 22.7617 27.7956 23.3028 28.1943L33.6201 35.9323C33.6882 35.979 33.7688 36.0039 33.8514 36.0039C33.9339 36.0039 34.0145 35.979 34.0826 35.9323C34.1575 35.898 34.2208 35.8428 34.2649 35.7734C34.3091 35.704 34.3323 35.6232 34.3317 35.541V5.33609C34.333 5.26939 34.3194 5.20324 34.2917 5.14254C34.264 5.08185 34.223 5.02816 34.1718 4.98545C34.1205 4.94274 34.0603 4.91211 33.9956 4.89583C33.9309 4.87954 33.8634 4.87802 33.798 4.89138H8.89413Z" fill="#56BED6"/>
</svg>
