<svg width="19" height="20" viewBox="0 0 19 20" fill="none" xmlns="http://www.w3.org/2000/svg">
<path d="M11.5029 7.99727L7.49702 12.0031C6.98244 11.4885 6.66577 10.7839 6.66577 10.0002C6.66577 8.43268 7.93244 7.16602 9.49994 7.16602C10.2837 7.16602 10.9883 7.48268 11.5029 7.99727Z" stroke="#91A6C4" stroke-width="1.1875" stroke-linecap="round" stroke-linejoin="round"/>
<path d="M14.1076 5.06813C12.7222 4.02312 11.1389 3.45312 9.50012 3.45312C6.70554 3.45312 4.10095 5.09979 2.28804 7.94979C1.57554 9.06604 1.57554 10.9423 2.28804 12.0585C2.91345 13.0402 3.64179 13.8873 4.43345 14.5681" stroke="#91A6C4" stroke-width="1.1875" stroke-linecap="round" stroke-linejoin="round"/>
<path d="M6.66577 15.9612C7.56827 16.3412 8.52619 16.547 9.49994 16.547C12.2945 16.547 14.8991 14.9003 16.712 12.0503C17.4245 10.9341 17.4245 9.05783 16.712 7.94158C16.4508 7.52992 16.1658 7.142 15.8729 6.77783" stroke="#91A6C4" stroke-width="1.1875" stroke-linecap="round" stroke-linejoin="round"/>
<path d="M12.2786 10.5542C12.0728 11.6704 11.1624 12.5809 10.0461 12.7867" stroke="#91A6C4" stroke-width="1.1875" stroke-linecap="round" stroke-linejoin="round"/>
<path d="M7.497 12.0029L1.58325 17.9167" stroke="#91A6C4" stroke-width="1.1875" stroke-linecap="round" stroke-linejoin="round"/>
<path d="M17.4167 2.0835L11.5029 7.99725" stroke="#91A6C4" stroke-width="1.1875" stroke-linecap="round" stroke-linejoin="round"/>
</svg>
