<svg width="19" height="20" viewBox="0 0 19 20" fill="none" xmlns="http://www.w3.org/2000/svg">
<path d="M12.3341 10.0002C12.3341 11.5677 11.0674 12.8343 9.49994 12.8343C7.93244 12.8343 6.66577 11.5677 6.66577 10.0002C6.66577 8.43268 7.93244 7.16602 9.49994 7.16602C11.0674 7.16602 12.3341 8.43268 12.3341 10.0002Z" stroke="#91A6C4" stroke-width="1.1875" stroke-linecap="round" stroke-linejoin="round"/>
<path d="M9.50012 16.5474C12.2947 16.5474 14.8993 14.9007 16.7122 12.0507C17.4247 10.9345 17.4247 9.05823 16.7122 7.94198C14.8993 5.09198 12.2947 3.44531 9.50012 3.44531C6.70554 3.44531 4.10095 5.09198 2.28804 7.94198C1.57554 9.05823 1.57554 10.9345 2.28804 12.0507C4.10095 14.9007 6.70554 16.5474 9.50012 16.5474Z" stroke="#91A6C4" stroke-width="1.1875" stroke-linecap="round" stroke-linejoin="round"/>
</svg>
