<svg width="20" height="20" viewBox="0 0 20 20" fill="none" xmlns="http://www.w3.org/2000/svg">
<path d="M17.4544 12.845C17.4544 15.7329 15.7328 17.4545 12.8449 17.4545H11.9007C11.4644 17.4545 11.1074 17.0975 11.1074 16.6611V12.0834C11.1074 11.8691 11.2819 11.6867 11.4961 11.6867L12.8925 11.6629C13.0035 11.6549 13.0988 11.5756 13.1226 11.4645L13.4002 9.94915C13.424 9.80635 13.313 9.67147 13.1622 9.67147L11.4723 9.69527C11.2502 9.69527 11.0756 9.52073 11.0677 9.30652L11.036 7.36273C11.036 7.23579 11.1391 7.12472 11.274 7.12472L13.1781 7.09298C13.3129 7.09298 13.4161 6.98985 13.4161 6.85497L13.3844 4.95084C13.3844 4.81597 13.2812 4.71284 13.1464 4.71284L11.0042 4.74458C9.68721 4.76838 8.63996 5.84737 8.66376 7.16438L8.70342 9.34618C8.71135 9.56832 8.53682 9.74288 8.31467 9.75081L7.3626 9.76667C7.22773 9.76667 7.1246 9.8698 7.1246 10.0047L7.1484 11.5121C7.1484 11.647 7.25153 11.7501 7.3864 11.7501L8.33847 11.7343C8.56062 11.7343 8.73514 11.9088 8.74308 12.123L8.81448 16.6453C8.82241 17.0896 8.46539 17.4545 8.0211 17.4545H6.19633C3.30843 17.4545 1.58679 15.7329 1.58679 12.837V6.19646C1.58679 3.30855 3.30843 1.58691 6.19633 1.58691H12.8449C15.7328 1.58691 17.4544 3.30855 17.4544 6.19646V12.845Z" fill="#56BED6"/>
</svg>
