<svg width="17" height="19" viewBox="0 0 17 19" fill="none" xmlns="http://www.w3.org/2000/svg">
<path d="M14.7535 0.113281H1.83383C1.47936 0.113281 1.13942 0.254092 0.888771 0.504738C0.638126 0.755383 0.497314 1.09533 0.497314 1.4498V16.8197C0.497663 17.1123 0.58175 17.3987 0.73964 17.645C0.897529 17.8913 1.12262 18.0872 1.38832 18.2097C1.60265 18.3221 1.84129 18.3803 2.08331 18.379C2.40519 18.3685 2.71613 18.2596 2.97432 18.0671L7.74123 14.5031C7.89546 14.3874 8.08305 14.3249 8.27584 14.3249C8.46862 14.3249 8.65621 14.3874 8.81044 14.5031L13.5773 18.0671C13.809 18.2409 14.0845 18.3467 14.3729 18.3727C14.6613 18.3987 14.9512 18.3439 15.2102 18.2144C15.4692 18.0849 15.6871 17.8858 15.8393 17.6395C15.9915 17.3932 16.0722 17.1093 16.0722 16.8197V1.4498C16.0722 1.0984 15.9338 0.761122 15.687 0.510983C15.4402 0.260843 15.1049 0.117967 14.7535 0.113281Z" fill="#56BED6"/>
</svg>
