<svg width="16" height="19" viewBox="0 0 16 19" fill="none" xmlns="http://www.w3.org/2000/svg">
<path d="M1.76276 18.6867C1.52203 18.6858 1.28456 18.631 1.06777 18.5263C0.802029 18.4015 0.577212 18.2037 0.419476 17.9561C0.261739 17.7084 0.177569 17.4211 0.176758 17.1274V1.98027C0.177919 1.77358 0.21993 1.56915 0.300375 1.37875C0.38082 1.18835 0.498112 1.01573 0.645505 0.870824C0.792899 0.725915 0.967485 0.611574 1.15922 0.534376C1.35096 0.457179 1.55607 0.418648 1.76276 0.421H14.2369C14.6497 0.423339 15.045 0.58837 15.3369 0.880284C15.6288 1.1722 15.7938 1.56745 15.7962 1.98027V17.1274C15.7904 17.4096 15.7081 17.6849 15.5582 17.924C15.4082 18.1631 15.1962 18.357 14.9446 18.485C14.6931 18.6131 14.4116 18.6705 14.13 18.6511C13.8485 18.6316 13.5775 18.5362 13.3459 18.3749L8.17803 14.499C8.1401 14.4686 8.09297 14.4521 8.04438 14.4521C7.99579 14.4521 7.94866 14.4686 7.91073 14.499L2.69832 18.3749C2.42782 18.5762 2.09993 18.6854 1.76276 18.6867ZM1.76276 1.75752C1.70368 1.75752 1.64702 1.78098 1.60525 1.82276C1.56347 1.86453 1.54 1.92119 1.54 1.98027V17.1274C1.53969 17.1687 1.5513 17.2091 1.57343 17.2439C1.59556 17.2787 1.62727 17.3063 1.66475 17.3235C1.69885 17.3468 1.73923 17.3593 1.78058 17.3593C1.82192 17.3593 1.8623 17.3468 1.89641 17.3235L7.10882 13.4298C7.37986 13.23 7.7077 13.1223 8.04438 13.1223C8.38106 13.1223 8.7089 13.23 8.97994 13.4298L14.1478 17.3057C14.1819 17.329 14.2223 17.3415 14.2636 17.3415C14.305 17.3415 14.3454 17.329 14.3795 17.3057C14.4169 17.2885 14.4487 17.2608 14.4708 17.2261C14.4929 17.1913 14.5045 17.1508 14.5042 17.1096V1.98027C14.5049 1.94686 14.498 1.91373 14.4842 1.88332C14.4703 1.85292 14.4498 1.82603 14.4241 1.80464C14.3984 1.78324 14.3683 1.7679 14.3359 1.75974C14.3035 1.75159 14.2696 1.75083 14.2369 1.75752H1.76276Z" fill="#91A6C4"/>
</svg>
