<svg width="37" height="37" viewBox="0 0 37 37" fill="none" xmlns="http://www.w3.org/2000/svg">
<path d="M13.875 33.9168H23.125C30.8333 33.9168 33.9167 30.8335 33.9167 23.1252V13.8752C33.9167 6.16683 30.8333 3.0835 23.125 3.0835H13.875C6.16666 3.0835 3.08333 6.16683 3.08333 13.8752V23.1252C3.08333 30.8335 6.16666 33.9168 13.875 33.9168Z" stroke="#56BED6" stroke-width="2.3125" stroke-linecap="round" stroke-linejoin="round"/>
<path d="M13.875 15.4167C15.5779 15.4167 16.9583 14.0362 16.9583 12.3333C16.9583 10.6305 15.5779 9.25 13.875 9.25C12.1721 9.25 10.7917 10.6305 10.7917 12.3333C10.7917 14.0362 12.1721 15.4167 13.875 15.4167Z" stroke="#56BED6" stroke-width="2.3125" stroke-linecap="round" stroke-linejoin="round"/>
<path d="M4.11624 29.2145L11.7167 24.1116C12.9346 23.2945 14.6921 23.387 15.7867 24.3274L16.2954 24.7745C17.4979 25.8074 19.4404 25.8074 20.6429 24.7745L27.0562 19.2708C28.2587 18.2379 30.2012 18.2379 31.4037 19.2708L33.9167 21.4291" stroke="#56BED6" stroke-width="2.3125" stroke-linecap="round" stroke-linejoin="round"/>
</svg>
