<svg width="20" height="20" viewBox="0 0 20 20" fill="none" xmlns="http://www.w3.org/2000/svg">
<path d="M9.5206 17.4545C13.9023 17.4545 17.4544 13.9024 17.4544 9.52072C17.4544 5.139 13.9023 1.58691 9.5206 1.58691C5.13888 1.58691 1.58679 5.139 1.58679 9.52072C1.58679 13.9024 5.13888 17.4545 9.5206 17.4545Z" stroke="#56BED6" stroke-width="1.19007" stroke-linecap="round" stroke-linejoin="round"/>
<path d="M6.34704 2.38037H7.14042C5.59333 7.01372 5.59333 12.0279 7.14042 16.6612H6.34704" stroke="#56BED6" stroke-width="1.19007" stroke-linecap="round" stroke-linejoin="round"/>
<path d="M11.9007 2.38037C13.4478 7.01372 13.4478 12.0279 11.9007 16.6612" stroke="#56BED6" stroke-width="1.19007" stroke-linecap="round" stroke-linejoin="round"/>
<path d="M2.38013 12.6943V11.9009C7.01347 13.448 12.0276 13.448 16.661 11.9009V12.6943" stroke="#56BED6" stroke-width="1.19007" stroke-linecap="round" stroke-linejoin="round"/>
<path d="M2.38013 7.1403C7.01347 5.59321 12.0276 5.59321 16.661 7.1403" stroke="#56BED6" stroke-width="1.19007" stroke-linecap="round" stroke-linejoin="round"/>
</svg>
