<svg width="52" height="52" viewBox="0 0 52 52" fill="none" xmlns="http://www.w3.org/2000/svg">
<g filter="url(#filter0_d_438_398)">
<circle cx="26" cy="25" r="19.5" stroke="white"/>
</g>
<path d="M29.8763 16.8047C28.2385 16.8047 26.7726 17.601 25.8586 18.8226C24.9447 17.601 23.4788 16.8047 21.841 16.8047C19.063 16.8047 16.8098 19.0669 16.8098 21.863C16.8098 22.9398 16.9817 23.9352 17.2804 24.8581C18.7101 29.3825 23.1168 32.0881 25.2976 32.8301C25.6053 32.9387 26.112 32.9387 26.4197 32.8301C28.6004 32.0881 33.0072 29.3825 34.4369 24.8581C34.7355 23.9352 34.9074 22.9398 34.9074 21.863C34.9074 19.0669 32.6543 16.8047 29.8763 16.8047Z" fill="white"/>
<defs>
<filter id="filter0_d_438_398" x="0.871779" y="0.897423" width="50.2564" height="50.2564" filterUnits="userSpaceOnUse" color-interpolation-filters="sRGB">
<feFlood flood-opacity="0" result="BackgroundImageFix"/>
<feColorMatrix in="SourceAlpha" type="matrix" values="0 0 0 0 0 0 0 0 0 0 0 0 0 0 0 0 0 0 127 0" result="hardAlpha"/>
<feOffset dy="1.02564"/>
<feGaussianBlur stdDeviation="2.56411"/>
<feColorMatrix type="matrix" values="0 0 0 0 0.0745098 0 0 0 0 0.705882 0 0 0 0 1 0 0 0 0.08 0"/>
<feBlend mode="normal" in2="BackgroundImageFix" result="effect1_dropShadow_438_398"/>
<feBlend mode="normal" in="SourceGraphic" in2="effect1_dropShadow_438_398" result="shape"/>
</filter>
</defs>
</svg>
