<svg width="20" height="20" viewBox="0 0 20 20" fill="none" xmlns="http://www.w3.org/2000/svg">
<path d="M20 8.24999V18C20 18.5304 19.7893 19.0391 19.4142 19.4142C19.0391 19.7893 18.5304 20 18 20H15.33C14.7996 20 14.2909 19.7893 13.9158 19.4142C13.5407 19.0391 13.33 18.5304 13.33 18V15.53C13.33 14.6468 12.9792 13.7998 12.3547 13.1753C11.7302 12.5508 10.8832 12.2 10 12.2C9.11683 12.2 8.26983 12.5508 7.64533 13.1753C7.02084 13.7998 6.67 14.6468 6.67 15.53V18C6.67 18.5304 6.45929 19.0391 6.08421 19.4142C5.70914 19.7893 5.20043 20 4.67 20H2C1.46957 20 0.960859 19.7893 0.585787 19.4142C0.210714 19.0391 2.09156e-07 18.5304 2.09156e-07 18V8.24999C-0.000184575 7.75508 0.122072 7.26782 0.355875 6.83162C0.589677 6.39542 0.927762 6.02384 1.34 5.74999L8.34 1.08999C8.83194 0.76319 9.4094 0.588867 10 0.588867C10.5906 0.588867 11.1681 0.76319 11.66 1.08999L18.66 5.74999C19.0722 6.02384 19.4103 6.39542 19.6441 6.83162C19.8779 7.26782 20.0002 7.75508 20 8.24999Z" fill="#56BED6"/>
</svg>
