<svg width="22" height="22" viewBox="0 0 22 22" fill="none" xmlns="http://www.w3.org/2000/svg">
<path d="M18.5734 20.5774H15.0094C14.4777 20.5774 13.9677 20.3662 13.5918 19.9902C13.2158 19.6143 13.0046 19.1043 13.0046 18.5726V16.3451C13.0041 16.0693 12.9468 15.7966 12.8362 15.544C12.7256 15.2914 12.564 15.0644 12.3616 14.877C12.1592 14.6897 11.9204 14.5462 11.66 14.4553C11.3996 14.3645 11.1233 14.3284 10.8483 14.3492C10.3288 14.4152 9.852 14.671 9.50982 15.0674C9.16764 15.4639 8.98427 15.973 8.99503 16.4966V18.5726C8.99503 19.1043 8.78382 19.6143 8.40785 19.9902C8.03188 20.3662 7.52196 20.5774 6.99026 20.5774H3.42622C2.89452 20.5774 2.3846 20.3662 2.00863 19.9902C1.63266 19.6143 1.42144 19.1043 1.42144 18.5726V9.21703C1.41898 8.85297 1.49767 8.49294 1.65179 8.16311C1.80592 7.83327 2.03161 7.54193 2.31245 7.31026L9.44054 1.59889C9.87665 1.25341 10.4167 1.06543 10.9731 1.06543C11.5294 1.06543 12.0695 1.25341 12.5056 1.59889L19.6337 7.30135C19.9152 7.53439 20.1413 7.82725 20.2954 8.15863C20.4495 8.49001 20.5279 8.85157 20.5247 9.21703V18.5726C20.5249 19.0952 20.321 19.5972 19.9565 19.9717C19.5921 20.3461 19.0958 20.5635 18.5734 20.5774ZM10.9998 13.0038C11.8852 13.0062 12.7338 13.359 13.3599 13.9851C13.986 14.6112 14.3387 15.4597 14.3411 16.3451V18.5726C14.3434 18.7492 14.4145 18.9178 14.5394 19.0426C14.6642 19.1674 14.8328 19.2386 15.0094 19.2409H18.5734C18.7499 19.2386 18.9185 19.1674 19.0434 19.0426C19.1682 18.9178 19.2393 18.7492 19.2417 18.5726V9.21703C19.2435 9.04656 19.2068 8.87788 19.1342 8.72359C19.0617 8.5693 18.9553 8.43339 18.8229 8.32602L11.6948 2.63246C11.4968 2.47637 11.252 2.39148 10.9998 2.39148C10.7477 2.39148 10.5028 2.47637 10.3048 2.63246L3.17673 8.32602C3.04228 8.43158 2.93438 8.56714 2.86166 8.72185C2.78895 8.87656 2.75343 9.04614 2.75796 9.21703V18.5726C2.76027 18.7492 2.83141 18.9178 2.95624 19.0426C3.08106 19.1674 3.2497 19.2386 3.42622 19.2409H6.99026C7.16677 19.2386 7.33541 19.1674 7.46024 19.0426C7.58506 18.9178 7.65621 18.7492 7.65852 18.5726V16.4966C7.64314 15.6325 7.95361 14.7943 8.52816 14.1488C9.10271 13.5033 9.89922 13.0977 10.7592 13.0127L10.9998 13.0038Z" fill="#91A6C4"/>
<path d="M18.5734 20.5774H15.0094C14.4777 20.5774 13.9677 20.3662 13.5918 19.9902C13.2158 19.6143 13.0046 19.1043 13.0046 18.5726V16.3451C13.0041 16.0693 12.9468 15.7966 12.8362 15.544C12.7256 15.2914 12.564 15.0644 12.3616 14.877C12.1592 14.6897 11.9204 14.5462 11.66 14.4553C11.3996 14.3645 11.1233 14.3284 10.8483 14.3492C10.3288 14.4152 9.852 14.671 9.50982 15.0674C9.16764 15.4639 8.98427 15.973 8.99503 16.4966V18.5726C8.99503 19.1043 8.78382 19.6143 8.40785 19.9902C8.03188 20.3662 7.52196 20.5774 6.99026 20.5774H3.42622C2.89452 20.5774 2.3846 20.3662 2.00863 19.9902C1.63266 19.6143 1.42144 19.1043 1.42144 18.5726V9.21703C1.41898 8.85297 1.49767 8.49294 1.65179 8.16311C1.80592 7.83327 2.03161 7.54193 2.31245 7.31026L9.44054 1.59889C9.87665 1.25341 10.4167 1.06543 10.9731 1.06543C11.5294 1.06543 12.0695 1.25341 12.5056 1.59889L19.6337 7.30135C19.9152 7.53439 20.1413 7.82725 20.2954 8.15863C20.4495 8.49001 20.5279 8.85157 20.5247 9.21703V18.5726C20.5249 19.0952 20.321 19.5972 19.9565 19.9717C19.5921 20.3461 19.0958 20.5635 18.5734 20.5774ZM10.9998 13.0038C11.8852 13.0062 12.7338 13.359 13.3599 13.9851C13.986 14.6112 14.3387 15.4597 14.3411 16.3451V18.5726C14.3434 18.7492 14.4145 18.9178 14.5394 19.0426C14.6642 19.1674 14.8328 19.2386 15.0094 19.2409H18.5734C18.7499 19.2386 18.9185 19.1674 19.0434 19.0426C19.1682 18.9178 19.2393 18.7492 19.2417 18.5726V9.21703C19.2435 9.04656 19.2068 8.87788 19.1342 8.72359C19.0617 8.5693 18.9553 8.43339 18.8229 8.32602L11.6948 2.63246C11.4968 2.47637 11.252 2.39148 10.9998 2.39148C10.7477 2.39148 10.5028 2.47637 10.3048 2.63246L3.17673 8.32602C3.04228 8.43158 2.93438 8.56714 2.86166 8.72185C2.78895 8.87656 2.75343 9.04614 2.75796 9.21703V18.5726C2.76027 18.7492 2.83141 18.9178 2.95624 19.0426C3.08106 19.1674 3.2497 19.2386 3.42622 19.2409H6.99026C7.16677 19.2386 7.33541 19.1674 7.46024 19.0426C7.58506 18.9178 7.65621 18.7492 7.65852 18.5726V16.4966C7.64314 15.6325 7.95361 14.7943 8.52816 14.1488C9.10271 13.5033 9.89922 13.0977 10.7592 13.0127L10.9998 13.0038Z" fill="#91A6C4"/>
</svg>
