<svg width="25" height="24" viewBox="0 0 25 24" fill="none" xmlns="http://www.w3.org/2000/svg">
<path d="M8.91663 3.5V2C8.91663 1.59 8.57663 1.25 8.16663 1.25C7.75663 1.25 7.41663 1.59 7.41663 2V3.56C7.66663 3.53 7.89663 3.5 8.16663 3.5H8.91663Z" fill="#56BED6"/>
<path d="M16.9166 3.56V2C16.9166 1.59 16.5766 1.25 16.1666 1.25C15.7566 1.25 15.4166 1.59 15.4166 2V3.5H16.1666C16.4366 3.5 16.6666 3.53 16.9166 3.56Z" fill="#56BED6"/>
<path d="M16.9166 3.56V5C16.9166 5.41 16.5766 5.75 16.1666 5.75C15.7566 5.75 15.4166 5.41 15.4166 5V3.5H8.91663V5C8.91663 5.41 8.57663 5.75 8.16663 5.75C7.75663 5.75 7.41663 5.41 7.41663 5V3.56C4.46663 3.83 3.16663 5.73 3.16663 8.5V17C3.16663 20 4.66663 22 8.16663 22H16.1666C19.6666 22 21.1666 20 21.1666 17V8.5C21.1666 5.73 19.8666 3.83 16.9166 3.56ZM12.1666 16.75H8.16663C7.75663 16.75 7.41663 16.41 7.41663 16C7.41663 15.59 7.75663 15.25 8.16663 15.25H12.1666C12.5766 15.25 12.9166 15.59 12.9166 16C12.9166 16.41 12.5766 16.75 12.1666 16.75ZM16.1666 11.75H8.16663C7.75663 11.75 7.41663 11.41 7.41663 11C7.41663 10.59 7.75663 10.25 8.16663 10.25H16.1666C16.5766 10.25 16.9166 10.59 16.9166 11C16.9166 11.41 16.5766 11.75 16.1666 11.75Z" fill="#56BED6"/>
</svg>
