<svg width="20" height="20" viewBox="0 0 20 20" fill="none" xmlns="http://www.w3.org/2000/svg">
<path d="M18.9101 5.32536H1.08989C0.91267 5.32531 0.742724 5.25489 0.617411 5.12958C0.492099 5.00427 0.421678 4.83432 0.421631 4.6571V3.76609C0.422673 2.88025 0.775036 2.03098 1.40142 1.4046C2.02781 0.778209 2.87708 0.425847 3.76292 0.424805H16.2371C17.1229 0.425847 17.9722 0.778209 18.5986 1.4046C19.225 2.03098 19.5773 2.88025 19.5784 3.76609V4.6571C19.5783 4.83432 19.5079 5.00427 19.3826 5.12958C19.2573 5.25489 19.0873 5.32531 18.9101 5.32536ZM1.75815 3.98885H18.2418V3.76609C18.2412 3.2346 18.0298 2.72505 17.6539 2.34923C17.2781 1.9734 16.7686 1.76198 16.2371 1.76132H3.76292C3.23142 1.76198 2.72188 1.9734 2.34606 2.34923C1.97023 2.72505 1.7588 3.2346 1.75815 3.76609V3.98885Z" fill="#56BED6"/>
<path d="M10.6765 9.96582L9.99909 8.38477L9.3217 9.96582C9.23809 10.1609 9.09902 10.3272 8.92175 10.444C8.74448 10.5608 8.53682 10.623 8.32453 10.6228H7.2373L8.25271 11.4346C8.42186 11.5693 8.54669 11.7517 8.61106 11.9582C8.67544 12.1647 8.67639 12.3857 8.61381 12.5927L8.11128 14.2686L9.34816 13.341C9.53617 13.2004 9.76466 13.1244 9.99946 13.1244C10.2343 13.1244 10.4627 13.2004 10.6507 13.341L11.8868 14.2686L11.3842 12.5936C11.3216 12.3866 11.3224 12.1657 11.3866 11.9592C11.4508 11.7528 11.5755 11.5703 11.7445 11.4354L12.7608 10.6227H11.6736C11.4614 10.6229 11.2537 10.5608 11.0764 10.444C10.8992 10.3272 10.7601 10.1609 10.6765 9.96582Z" fill="#56BED6"/>
<path d="M18.9094 3.98633H1.08916C0.911938 3.98638 0.741991 4.0568 0.616679 4.18211C0.491366 4.30742 0.420946 4.47737 0.420898 4.65459V16.2377C0.421941 17.1236 0.774303 17.9728 1.40069 18.5992C2.02708 19.2256 2.87634 19.578 3.76219 19.579H16.2363C17.1222 19.578 17.9714 19.2256 18.5978 18.5992C19.2242 17.9728 19.5766 17.1236 19.5776 16.2377V4.65459C19.5776 4.47737 19.5072 4.30742 19.3818 4.18211C19.2565 4.0568 19.0866 3.98638 18.9094 3.98633ZM14.1567 11.2171L12.7132 12.3709L13.3871 14.6167C13.4528 14.8354 13.4477 15.0692 13.3727 15.2849C13.2977 15.5006 13.1565 15.6871 12.9693 15.8178C12.7821 15.9486 12.5584 16.0169 12.3301 16.0131C12.1018 16.0093 11.8805 15.9335 11.6978 15.7966L9.99926 14.5227L8.30121 15.7957C8.11855 15.9327 7.89731 16.0086 7.66901 16.0125C7.4407 16.0165 7.21698 15.9482 7.02972 15.8176C6.84246 15.6869 6.70121 15.5005 6.6261 15.2849C6.55099 15.0692 6.54585 14.8354 6.61142 14.6167L7.28533 12.3709L5.84181 11.2171C5.6664 11.0766 5.53893 10.8852 5.47701 10.6692C5.41509 10.4532 5.42177 10.2233 5.49612 10.0112C5.57048 9.79919 5.70885 9.61547 5.89212 9.48544C6.07538 9.35542 6.2945 9.28551 6.51921 9.28537H8.15894L9.00253 7.31713C9.08601 7.12193 9.22496 6.95554 9.40215 6.8386C9.57934 6.72166 9.78696 6.65932 9.99926 6.65932C10.2116 6.65932 10.4192 6.72166 10.5964 6.8386C10.7736 6.95554 10.9125 7.12193 10.996 7.31713L11.8396 9.28537H13.4793C13.704 9.28551 13.9232 9.35542 14.1064 9.48544C14.2897 9.61547 14.4281 9.79919 14.5024 10.0112C14.5768 10.2233 14.5835 10.4532 14.5215 10.6692C14.4596 10.8852 14.3321 11.0766 14.1567 11.2171Z" fill="#56BED6"/>
</svg>
