<svg width="22" height="22" viewBox="0 0 22 22" fill="none" xmlns="http://www.w3.org/2000/svg">
<path d="M18 21.75H4C3.00577 21.7489 2.05257 21.3535 1.34955 20.6505C0.646522 19.9474 0.251085 18.9942 0.25 18V5C0.250053 4.8011 0.329088 4.61037 0.469728 4.46973C0.610369 4.32909 0.801104 4.25005 1 4.25H21C21.1989 4.25005 21.3896 4.32909 21.5303 4.46973C21.6709 4.61037 21.7499 4.8011 21.75 5V18C21.7489 18.9942 21.3535 19.9474 20.6505 20.6505C19.9474 21.3535 18.9942 21.7489 18 21.75ZM1.75 5.75V18C1.75065 18.5965 1.98791 19.1685 2.40973 19.5903C2.83154 20.0121 3.40346 20.2493 4 20.25H18C18.5965 20.2493 19.1685 20.0121 19.5903 19.5903C20.0121 19.1685 20.2493 18.5965 20.25 18V5.75H1.75Z" fill="#91A6C4"/>
<path d="M21 5.75H1C0.801104 5.74995 0.610369 5.67091 0.469728 5.53027C0.329088 5.38963 0.250053 5.1989 0.25 5V4C0.251085 3.00577 0.646522 2.05257 1.34955 1.34955C2.05257 0.646522 3.00577 0.251085 4 0.25H18C18.9942 0.251085 19.9474 0.646522 20.6505 1.34955C21.3535 2.05257 21.7489 3.00577 21.75 4V5C21.7499 5.1989 21.6709 5.38963 21.5303 5.53027C21.3896 5.67091 21.1989 5.74995 21 5.75ZM1.75 4.25H20.25V4C20.2493 3.40346 20.0121 2.83154 19.5903 2.40973C19.1685 1.98791 18.5965 1.75065 18 1.75H4C3.40346 1.75065 2.83154 1.98791 2.40973 2.40973C1.98791 2.83154 1.75065 3.40346 1.75 4V4.25Z" fill="#91A6C4"/>
<path d="M13.6363 17.748C13.3729 17.7484 13.1166 17.6629 12.9063 17.5044L11 16.0747L9.09429 17.5044C8.88929 17.6582 8.64099 17.7433 8.38475 17.7477C8.12852 17.7521 7.87743 17.6756 7.66726 17.5289C7.45709 17.3823 7.29856 17.1731 7.21427 16.9311C7.12997 16.689 7.12421 16.4266 7.1978 16.1811L7.95415 13.6611L6.33355 12.3647C6.13672 12.2071 5.9937 11.9923 5.92426 11.7499C5.85482 11.5075 5.86238 11.2495 5.9459 11.0116C6.02942 10.7737 6.18478 10.5676 6.3905 10.4218C6.59622 10.276 6.84214 10.1977 7.09429 10.1977H8.93462L9.8814 7.98772C9.9752 7.76877 10.1312 7.58217 10.33 7.45103C10.5289 7.3199 10.7619 7.25 11 7.25C11.2382 7.25 11.4712 7.3199 11.67 7.45103C11.8689 7.58217 12.0249 7.76877 12.1187 7.98772L13.0655 10.1977H14.9058C15.158 10.1977 15.4039 10.276 15.6096 10.4218C15.8153 10.5676 15.9707 10.7737 16.0542 11.0116C16.1377 11.2495 16.1453 11.5075 16.0758 11.7499C16.0064 11.9923 15.8634 12.2071 15.6665 12.3647L14.0459 13.6611L14.8023 16.1811C14.8568 16.3629 14.868 16.5548 14.8351 16.7417C14.8022 16.9286 14.7261 17.1051 14.6128 17.2574C14.4995 17.4096 14.3522 17.5332 14.1827 17.6184C14.0131 17.7036 13.826 17.748 13.6363 17.748ZM11 14.5058C11.2633 14.5053 11.5196 14.5901 11.7305 14.7475L13.1187 15.7885L12.5547 13.9091C12.4841 13.6767 12.485 13.4285 12.5573 13.1966C12.6296 12.9648 12.7699 12.76 12.96 12.6089L14.0992 11.6977H12.8794C12.6413 11.6979 12.4084 11.6281 12.2096 11.4971C12.0107 11.3662 11.8547 11.1797 11.7608 10.9609L11 9.18552L10.2398 10.96C10.146 11.179 9.98989 11.3657 9.79095 11.4968C9.592 11.628 9.35894 11.6978 9.12066 11.6978H7.90093L9.04009 12.6094C9.23022 12.7604 9.37053 12.9651 9.44281 13.1969C9.51508 13.4287 9.51597 13.6769 9.44536 13.9092L8.88136 15.7886L10.2695 14.7476C10.4805 14.5901 10.7368 14.5053 11 14.5058Z" fill="#91A6C4"/>
</svg>
