<svg width="20" height="17" viewBox="0 0 20 17" fill="none" xmlns="http://www.w3.org/2000/svg">
<path d="M18.9094 0.986328H1.08916C0.911938 0.986375 0.741991 1.0568 0.616679 1.18211C0.491366 1.30742 0.420946 1.47737 0.420898 1.65459V13.2377C0.421941 14.1236 0.774303 14.9728 1.40069 15.5992C2.02708 16.2256 2.87634 16.578 3.76219 16.579H16.2363C17.1222 16.578 17.9714 16.2256 18.5978 15.5992C19.2242 14.9728 19.5766 14.1236 19.5776 13.2377V1.65459C19.5776 1.47737 19.5072 1.30742 19.3818 1.18211C19.2565 1.0568 19.0866 0.986375 18.9094 0.986328ZM14.1567 8.21708L12.7132 9.37088L13.3871 11.6167C13.4528 11.8354 13.4477 12.0692 13.3727 12.2849C13.2977 12.5006 13.1565 12.6871 12.9693 12.8178C12.7821 12.9486 12.5584 13.0169 12.3301 13.0131C12.1018 13.0093 11.8805 12.9335 11.6978 12.7966L9.99926 11.5227L8.30121 12.7957C8.11855 12.9327 7.89731 13.0086 7.66901 13.0125C7.4407 13.0165 7.21698 12.9482 7.02972 12.8176C6.84246 12.6869 6.70121 12.5005 6.6261 12.2849C6.55099 12.0692 6.54585 11.8354 6.61142 11.6167L7.28533 9.37088L5.84181 8.21708C5.6664 8.07664 5.53893 7.88519 5.47701 7.66919C5.41509 7.45318 5.42177 7.22328 5.49612 7.01123C5.57048 6.79919 5.70885 6.61547 5.89212 6.48544C6.07538 6.35542 6.2945 6.28551 6.51921 6.28537H8.15894L9.00253 4.31713C9.08601 4.12193 9.22496 3.95554 9.40215 3.8386C9.57934 3.72166 9.78696 3.65932 9.99926 3.65932C10.2116 3.65932 10.4192 3.72166 10.5964 3.8386C10.7736 3.95554 10.9125 4.12193 10.996 4.31713L11.8396 6.28537H13.4793C13.704 6.28551 13.9232 6.35542 14.1064 6.48544C14.2897 6.61547 14.4281 6.79919 14.5024 7.01123C14.5768 7.22328 14.5835 7.45318 14.5215 7.66919C14.4596 7.88519 14.3321 8.07664 14.1567 8.21708Z" fill="#56BED6"/>
</svg>
