<svg width="24" height="25" viewBox="0 0 24 25" fill="none" xmlns="http://www.w3.org/2000/svg">
<path d="M18 7.66C17.94 7.65 17.87 7.65 17.81 7.66C16.43 7.61 15.33 6.48 15.33 5.08C15.33 3.65 16.48 2.5 17.91 2.5C19.34 2.5 20.49 3.66 20.49 5.08C20.48 6.48 19.38 7.61 18 7.66Z" stroke="white" stroke-width="1.5" stroke-linecap="round" stroke-linejoin="round"/>
<path d="M16.97 14.9402C18.34 15.1702 19.85 14.9302 20.91 14.2202C22.32 13.2802 22.32 11.7402 20.91 10.8002C19.84 10.0902 18.31 9.85016 16.94 10.0902" stroke="white" stroke-width="1.5" stroke-linecap="round" stroke-linejoin="round"/>
<path d="M5.96998 7.66C6.02998 7.65 6.09998 7.65 6.15998 7.66C7.53998 7.61 8.63998 6.48 8.63998 5.08C8.63998 3.65 7.48998 2.5 6.05998 2.5C4.62998 2.5 3.47998 3.66 3.47998 5.08C3.48998 6.48 4.58998 7.61 5.96998 7.66Z" stroke="white" stroke-width="1.5" stroke-linecap="round" stroke-linejoin="round"/>
<path d="M7 14.9402C5.63 15.1702 4.12 14.9302 3.06 14.2202C1.65 13.2802 1.65 11.7402 3.06 10.8002C4.13 10.0902 5.66 9.85016 7.03 10.0902" stroke="white" stroke-width="1.5" stroke-linecap="round" stroke-linejoin="round"/>
<path d="M12 15.1302C11.94 15.1202 11.87 15.1202 11.81 15.1302C10.43 15.0802 9.32996 13.9502 9.32996 12.5502C9.32996 11.1202 10.48 9.97021 11.91 9.97021C13.34 9.97021 14.49 11.1302 14.49 12.5502C14.48 13.9502 13.38 15.0902 12 15.1302Z" stroke="white" stroke-width="1.5" stroke-linecap="round" stroke-linejoin="round"/>
<path d="M9.08997 18.2804C7.67997 19.2204 7.67997 20.7603 9.08997 21.7003C10.69 22.7703 13.31 22.7703 14.91 21.7003C16.32 20.7603 16.32 19.2204 14.91 18.2804C13.32 17.2204 10.69 17.2204 9.08997 18.2804Z" stroke="white" stroke-width="1.5" stroke-linecap="round" stroke-linejoin="round"/>
</svg>
