<svg width="18" height="23" viewBox="0 0 18 23" fill="none" xmlns="http://www.w3.org/2000/svg">
<path d="M15.5 22.75H2.5C2.03668 22.7474 1.59309 22.5622 1.26546 22.2345C0.937842 21.9069 0.752625 21.4633 0.75 21V20.5C0.75 18.312 1.61919 16.2135 3.16637 14.6664C4.71354 13.1192 6.81196 12.25 9 12.25C11.188 12.25 13.2865 13.1192 14.8336 14.6664C16.3808 16.2135 17.25 18.312 17.25 20.5V21C17.2474 21.4633 17.0622 21.9069 16.7345 22.2345C16.4069 22.5622 15.9633 22.7474 15.5 22.75ZM9 13.75C7.2106 13.7526 5.49525 14.4647 4.22995 15.73C2.96465 16.9952 2.25265 18.7106 2.25 20.5V21C2.25 21.0663 2.27634 21.1299 2.32322 21.1768C2.37011 21.2237 2.4337 21.25 2.5 21.25H15.5C15.5663 21.25 15.6299 21.2237 15.6768 21.1768C15.7237 21.1299 15.75 21.0663 15.75 21V20.5C15.7474 18.7106 15.0353 16.9952 13.7701 15.73C12.5048 14.4647 10.7894 13.7526 9 13.75Z" fill="#91A6C4"/>
<path d="M9 11.25C7.96165 11.25 6.94662 10.9421 6.08326 10.3652C5.2199 9.78834 4.54699 8.9684 4.14963 8.00909C3.75227 7.04978 3.64831 5.99418 3.85088 4.97578C4.05345 3.95738 4.55347 3.02192 5.28769 2.28769C6.02192 1.55347 6.95738 1.05345 7.97578 0.85088C8.99418 0.648307 10.0498 0.752275 11.0091 1.14963C11.9684 1.54699 12.7883 2.2199 13.3652 3.08326C13.9421 3.94662 14.25 4.96165 14.25 6C14.25 7.39239 13.6969 8.72775 12.7123 9.71231C11.7277 10.6969 10.3924 11.25 9 11.25ZM9 2.25C8.25832 2.25 7.5333 2.46994 6.91661 2.88199C6.29993 3.29405 5.81928 3.87972 5.53545 4.56494C5.25163 5.25016 5.17736 6.00416 5.32206 6.73159C5.46675 7.45902 5.8239 8.12721 6.34835 8.65165C6.8728 9.1761 7.54099 9.53325 8.26841 9.67795C8.99584 9.82264 9.74984 9.74838 10.4351 9.46455C11.1203 9.18072 11.706 8.70008 12.118 8.08339C12.5301 7.46671 12.75 6.74168 12.75 6C12.75 5.00544 12.3549 4.05161 11.6517 3.34835C10.9484 2.64509 9.99456 2.25 9 2.25Z" fill="#91A6C4"/>
</svg>
