<svg width="49" height="49" viewBox="0 0 49 49" fill="none" xmlns="http://www.w3.org/2000/svg">
<path d="M24.6448 22.0301C24.4421 22.0099 24.1989 22.0099 23.9759 22.0301C19.1524 21.868 15.3219 17.9159 15.3219 13.0518C15.3219 8.08637 19.3348 4.05322 24.3205 4.05322C29.2859 4.05322 33.3191 8.08637 33.3191 13.0518C33.2988 17.9159 29.4683 21.868 24.6448 22.0301Z" stroke="#56BED6" stroke-width="3.04006" stroke-linecap="round" stroke-linejoin="round"/>
<path d="M14.5112 29.5087C9.60654 32.792 9.60654 38.1425 14.5112 41.4055C20.0846 45.1346 29.2251 45.1346 34.7985 41.4055C39.7032 38.1222 39.7032 32.7717 34.7985 29.5087C29.2453 25.7998 20.1049 25.7998 14.5112 29.5087Z" stroke="#56BED6" stroke-width="3.04006" stroke-linecap="round" stroke-linejoin="round"/>
</svg>
