<svg width="16" height="21" viewBox="0 0 16 21" fill="none" xmlns="http://www.w3.org/2000/svg">
<path d="M8.00001 11.2217C6.05117 11.224 4.18282 11.9993 2.80478 13.3773C1.42675 14.7553 0.651528 16.6237 0.64917 18.5725V19.018C0.651509 19.4308 0.81654 19.8261 1.10845 20.118C1.40037 20.4099 1.79562 20.575 2.20844 20.5773H13.7916C14.2044 20.575 14.5996 20.4099 14.8916 20.118C15.1835 19.8261 15.3485 19.4308 15.3508 19.018V18.5725C15.3485 16.6237 14.5733 14.7553 13.1952 13.3773C11.8172 11.9993 9.94885 11.224 8.00001 11.2217Z" fill="#56BED6"/>
<path d="M8.00007 10.3312C10.5836 10.3312 12.6779 8.23687 12.6779 5.65339C12.6779 3.06991 10.5836 0.975586 8.00007 0.975586C5.41659 0.975586 3.32227 3.06991 3.32227 5.65339C3.32227 8.23687 5.41659 10.3312 8.00007 10.3312Z" fill="#56BED6"/>
</svg>
