<svg width="25" height="24" viewBox="0 0 25 24" fill="none" xmlns="http://www.w3.org/2000/svg">
<path d="M12.5 2C9.88 2 7.75 4.13 7.75 6.75C7.75 9.32 9.76 11.4 12.38 11.49C12.46 11.48 12.54 11.48 12.6 11.49C12.62 11.49 12.63 11.49 12.65 11.49C12.66 11.49 12.66 11.49 12.67 11.49C15.23 11.4 17.24 9.32 17.25 6.75C17.25 4.13 15.12 2 12.5 2Z" fill="#56BED6"/>
<path d="M17.58 14.1599C14.79 12.2999 10.24 12.2999 7.42996 14.1599C6.15996 14.9999 5.45996 16.1499 5.45996 17.3799C5.45996 18.6099 6.15996 19.7499 7.41996 20.5899C8.81996 21.5299 10.66 21.9999 12.5 21.9999C14.34 21.9999 16.18 21.5299 17.58 20.5899C18.84 19.7399 19.54 18.5999 19.54 17.3599C19.53 16.1399 18.84 14.9899 17.58 14.1599ZM14.33 18.0699H10.68C10.3 18.0699 9.98996 17.7599 9.98996 17.3799C9.98996 16.9999 10.3 16.6899 10.68 16.6899H14.33C14.71 16.6899 15.02 16.9999 15.02 17.3799C15.02 17.7599 14.71 18.0699 14.33 18.0699Z" fill="#56BED6"/>
</svg>
