<svg width="23" height="24" viewBox="0 0 23 24" fill="none" xmlns="http://www.w3.org/2000/svg">
<path d="M1.9165 8.77132V6.37549C1.9165 3.98924 3.84275 2.06299 6.229 2.06299H8.62484" stroke="#56BED6" stroke-width="1.4375" stroke-linecap="round" stroke-linejoin="round"/>
<path d="M14.375 2.06299H16.7708C19.1571 2.06299 21.0833 3.98924 21.0833 6.37549V8.77132" stroke="#56BED6" stroke-width="1.4375" stroke-linecap="round" stroke-linejoin="round"/>
<path d="M21.0835 15.48V16.9175C21.0835 19.3037 19.1572 21.23 16.771 21.23H15.3335" stroke="#56BED6" stroke-width="1.4375" stroke-linecap="round" stroke-linejoin="round"/>
<path d="M8.62484 21.2298H6.229C3.84275 21.2298 1.9165 19.3036 1.9165 16.9173V14.5215" stroke="#56BED6" stroke-width="1.4375" stroke-linecap="round" stroke-linejoin="round"/>
<path d="M16.2918 9.25049V14.0422C16.2918 15.9588 15.3335 16.9172 13.4168 16.9172H9.5835C7.66683 16.9172 6.7085 15.9588 6.7085 14.0422V9.25049C6.7085 7.33382 7.66683 6.37549 9.5835 6.37549H13.4168C15.3335 6.37549 16.2918 7.33382 16.2918 9.25049Z" stroke="#56BED6" stroke-width="1.4375" stroke-linecap="round" stroke-linejoin="round"/>
<path d="M18.2082 11.6465H4.7915" stroke="#56BED6" stroke-width="1.4375" stroke-linecap="round" stroke-linejoin="round"/>
</svg>
