<svg width="32" height="33" viewBox="0 0 32 33" fill="none" xmlns="http://www.w3.org/2000/svg">
<path d="M2.66675 12.4998V9.1665C2.66675 5.8465 5.34675 3.1665 8.66675 3.1665H12.0001" stroke="white" stroke-width="2" stroke-linecap="round" stroke-linejoin="round"/>
<path d="M20 3.1665H23.3333C26.6533 3.1665 29.3333 5.8465 29.3333 9.1665V12.4998" stroke="white" stroke-width="2" stroke-linecap="round" stroke-linejoin="round"/>
<path d="M29.3333 21.8335V23.8335C29.3333 27.1535 26.6533 29.8335 23.3333 29.8335H21.3333" stroke="white" stroke-width="2" stroke-linecap="round" stroke-linejoin="round"/>
<path d="M12.0001 29.8333H8.66675C5.34675 29.8333 2.66675 27.1533 2.66675 23.8333V20.5" stroke="white" stroke-width="2" stroke-linecap="round" stroke-linejoin="round"/>
<path d="M22.6666 13.1665V19.8332C22.6666 22.4998 21.3333 23.8332 18.6666 23.8332H13.3333C10.6666 23.8332 9.33325 22.4998 9.33325 19.8332V13.1665C9.33325 10.4998 10.6666 9.1665 13.3333 9.1665H18.6666C21.3333 9.1665 22.6666 10.4998 22.6666 13.1665Z" stroke="white" stroke-width="2" stroke-linecap="round" stroke-linejoin="round"/>
<path d="M25.3334 16.5H6.66675" stroke="white" stroke-width="2" stroke-linecap="round" stroke-linejoin="round"/>
</svg>
