<svg width="25" height="25" viewBox="0 0 25 25" fill="none" xmlns="http://www.w3.org/2000/svg">
<path d="M16.6401 3.46004L7.61012 6.46004C1.54012 8.49004 1.54012 11.8 7.61012 13.82L10.2901 14.71L11.1801 17.39C13.2001 23.46 16.5201 23.46 18.5401 17.39L21.5501 8.37004C22.8901 4.32004 20.6901 2.11004 16.6401 3.46004ZM16.9601 8.84004L13.1601 12.66C13.0101 12.81 12.8201 12.88 12.6301 12.88C12.4401 12.88 12.2501 12.81 12.1001 12.66C11.8101 12.37 11.8101 11.89 12.1001 11.6L15.9001 7.78004C16.1901 7.49004 16.6701 7.49004 16.9601 7.78004C17.2501 8.07004 17.2501 8.55004 16.9601 8.84004Z" fill="white"/>
</svg>
