<svg width="24" height="24" viewBox="0 0 24 24" fill="none" xmlns="http://www.w3.org/2000/svg">
<path d="M13.12 17.0232L8.92102 14.7332C8.37282 15.3193 7.66101 15.7269 6.8781 15.9031C6.09518 16.0793 5.27737 16.0159 4.53094 15.7212C3.78452 15.4266 3.14398 14.9142 2.69259 14.2507C2.2412 13.5871 1.99982 12.8032 1.99982 12.0007C1.99982 11.1982 2.2412 10.4143 2.69259 9.75076C3.14398 9.08725 3.78452 8.57486 4.53094 8.28017C5.27737 7.98548 6.09518 7.92212 6.8781 8.09832C7.66101 8.27452 8.37282 8.68214 8.92102 9.26821L13.121 6.97821C12.8829 6.03417 12.9973 5.0357 13.4427 4.16997C13.8882 3.30424 14.6341 2.63069 15.5406 2.27557C16.4471 1.92046 17.452 1.90816 18.367 2.24098C19.2819 2.57381 20.0441 3.2289 20.5105 4.08347C20.977 4.93804 21.1158 5.93341 20.9009 6.88299C20.686 7.83257 20.1321 8.67116 19.3431 9.24158C18.5541 9.81199 17.5842 10.0751 16.6151 9.98148C15.646 9.88789 14.7443 9.44407 14.079 8.73321L9.87902 11.0232C10.0402 11.6646 10.0402 12.3358 9.87902 12.9772L14.079 15.2672C14.7446 14.5567 15.6465 14.1133 16.6156 14.0202C17.5847 13.9271 18.5545 14.1906 19.3433 14.7614C20.132 15.3322 20.6854 16.171 20.8999 17.1207C21.1144 18.0703 20.9752 19.0656 20.5083 19.9199C20.0415 20.7743 19.2791 21.429 18.364 21.7615C17.4489 22.0939 16.444 22.0812 15.5377 21.7257C14.6313 21.3702 13.8857 20.6964 13.4407 19.8305C12.9956 18.9646 12.8816 17.9661 13.12 17.0222M6.00002 14.0002C6.53046 14.0002 7.03916 13.7895 7.41424 13.4144C7.78931 13.0393 8.00002 12.5306 8.00002 12.0002C8.00002 11.4698 7.78931 10.9611 7.41424 10.586C7.03916 10.2109 6.53046 10.0002 6.00002 10.0002C5.46959 10.0002 4.96088 10.2109 4.58581 10.586C4.21074 10.9611 4.00002 11.4698 4.00002 12.0002C4.00002 12.5306 4.21074 13.0393 4.58581 13.4144C4.96088 13.7895 5.46959 14.0002 6.00002 14.0002ZM17 8.00021C17.5305 8.00021 18.0392 7.78949 18.4142 7.41442C18.7893 7.03935 19 6.53064 19 6.00021C19 5.46977 18.7893 4.96107 18.4142 4.58599C18.0392 4.21092 17.5305 4.00021 17 4.00021C16.4696 4.00021 15.9609 4.21092 15.5858 4.58599C15.2107 4.96107 15 5.46977 15 6.00021C15 6.53064 15.2107 7.03935 15.5858 7.41442C15.9609 7.78949 16.4696 8.00021 17 8.00021ZM17 20.0002C17.5305 20.0002 18.0392 19.7895 18.4142 19.4144C18.7893 19.0393 19 18.5306 19 18.0002C19 17.4698 18.7893 16.9611 18.4142 16.586C18.0392 16.2109 17.5305 16.0002 17 16.0002C16.4696 16.0002 15.9609 16.2109 15.5858 16.586C15.2107 16.9611 15 17.4698 15 18.0002C15 18.5306 15.2107 19.0393 15.5858 19.4144C15.9609 19.7895 16.4696 20.0002 17 20.0002Z" fill="white"/>
</svg>
