<svg width="23" height="24" viewBox="0 0 23 24" fill="none" xmlns="http://www.w3.org/2000/svg">
<path d="M16.2533 6.43018C18.17 7.76226 19.4925 9.88018 19.7608 12.3239" stroke="white" stroke-width="1.5" stroke-linecap="round" stroke-linejoin="round"/>
<path d="M3.34457 12.372C3.59374 9.93786 4.89707 7.81994 6.79457 6.47827" stroke="white" stroke-width="1.5" stroke-linecap="round" stroke-linejoin="round"/>
<path d="M7.84875 20.5847C8.96042 21.1501 10.2254 21.4664 11.5575 21.4664C12.8417 21.4664 14.0492 21.1789 15.1321 20.6518" stroke="white" stroke-width="1.5" stroke-linecap="round" stroke-linejoin="round"/>
<path d="M11.5575 7.89645C13.0289 7.89645 14.2217 6.70366 14.2217 5.23228C14.2217 3.7609 13.0289 2.56812 11.5575 2.56812C10.0861 2.56812 8.89334 3.7609 8.89334 5.23228C8.89334 6.70366 10.0861 7.89645 11.5575 7.89645Z" stroke="white" stroke-width="1.5" stroke-linecap="round" stroke-linejoin="round"/>
<path d="M4.62874 19.6074C6.10011 19.6074 7.2929 18.4146 7.2929 16.9432C7.2929 15.4718 6.10011 14.2791 4.62874 14.2791C3.15736 14.2791 1.96457 15.4718 1.96457 16.9432C1.96457 18.4146 3.15736 19.6074 4.62874 19.6074Z" stroke="white" stroke-width="1.5" stroke-linecap="round" stroke-linejoin="round"/>
<path d="M18.3713 19.6074C19.8426 19.6074 21.0354 18.4146 21.0354 16.9432C21.0354 15.4718 19.8426 14.2791 18.3713 14.2791C16.8999 14.2791 15.7071 15.4718 15.7071 16.9432C15.7071 18.4146 16.8999 19.6074 18.3713 19.6074Z" stroke="white" stroke-width="1.5" stroke-linecap="round" stroke-linejoin="round"/>
</svg>
