<svg width="37" height="37" viewBox="0 0 37 37" fill="none" xmlns="http://www.w3.org/2000/svg">
<path d="M27.75 11.0385C27.6575 11.0231 27.5495 11.0231 27.457 11.0385C25.3295 10.9614 23.6337 9.21933 23.6337 7.061C23.6337 4.85642 25.4066 3.0835 27.6112 3.0835C29.8158 3.0835 31.5887 4.87183 31.5887 7.061C31.5733 9.21933 29.8775 10.9614 27.75 11.0385Z" stroke="#56BED6" stroke-width="2.3125" stroke-linecap="round" stroke-linejoin="round"/>
<path d="M26.162 22.2621C28.2741 22.6167 30.602 22.2467 32.2362 21.1521C34.4099 19.7029 34.4099 17.3287 32.2362 15.8796C30.5866 14.785 28.2279 14.415 26.1158 14.785" stroke="#56BED6" stroke-width="2.3125" stroke-linecap="round" stroke-linejoin="round"/>
<path d="M9.20367 11.0385C9.29617 11.0231 9.40408 11.0231 9.49658 11.0385C11.6241 10.9614 13.3199 9.21933 13.3199 7.061C13.3199 4.85642 11.547 3.0835 9.34242 3.0835C7.13783 3.0835 5.36491 4.87183 5.36491 7.061C5.38033 9.21933 7.07617 10.9614 9.20367 11.0385Z" stroke="#56BED6" stroke-width="2.3125" stroke-linecap="round" stroke-linejoin="round"/>
<path d="M10.7915 22.2621C8.67943 22.6167 6.35152 22.2467 4.71735 21.1521C2.5436 19.7029 2.5436 17.3287 4.71735 15.8796C6.36693 14.785 8.72568 14.415 10.8378 14.785" stroke="#56BED6" stroke-width="2.3125" stroke-linecap="round" stroke-linejoin="round"/>
<path d="M18.4999 22.5536C18.4074 22.5382 18.2995 22.5382 18.207 22.5536C16.0795 22.4766 14.3837 20.7345 14.3837 18.5761C14.3837 16.3716 16.1566 14.5986 18.3611 14.5986C20.5657 14.5986 22.3387 16.387 22.3387 18.5761C22.3232 20.7345 20.6274 22.492 18.4999 22.5536Z" stroke="#56BED6" stroke-width="2.3125" stroke-linecap="round" stroke-linejoin="round"/>
<path d="M14.0137 27.4092C11.8399 28.8584 11.8399 31.2326 14.0137 32.6817C16.4803 34.3313 20.5195 34.3313 22.9862 32.6817C25.1599 31.2326 25.1599 28.8584 22.9862 27.4092C20.5349 25.7751 16.4803 25.7751 14.0137 27.4092Z" stroke="#56BED6" stroke-width="2.3125" stroke-linecap="round" stroke-linejoin="round"/>
</svg>
