<svg width="49" height="49" viewBox="0 0 49 49" fill="none" xmlns="http://www.w3.org/2000/svg">
<path d="M24.3789 4.06232C13.1846 4.06232 4.0625 13.1844 4.0625 24.3788C4.0625 35.5731 13.1846 44.6952 24.3789 44.6952C35.5733 44.6952 44.6954 35.5731 44.6954 24.3788C44.6954 13.1844 35.5733 4.06232 24.3789 4.06232ZM34.0902 19.706L22.5708 31.2254C22.2863 31.5098 21.9003 31.6724 21.494 31.6724C21.0877 31.6724 20.7017 31.5098 20.4172 31.2254L14.6677 25.4758C14.0785 24.8867 14.0785 23.9115 14.6677 23.3223C15.2569 22.7331 16.232 22.7331 16.8212 23.3223L21.494 27.9951L31.9367 17.5524C32.5258 16.9633 33.501 16.9633 34.0902 17.5524C34.6794 18.1416 34.6794 19.0965 34.0902 19.706Z" fill="#00BE8C"/>
</svg>
