<svg width="38" height="37" viewBox="0 0 38 37" fill="none" xmlns="http://www.w3.org/2000/svg">
<path d="M21.6671 5.41156L24.3804 10.8382C24.7504 11.5936 25.7371 12.3182 26.5696 12.457L31.4875 13.2741C34.6325 13.7982 35.3725 16.0799 33.1063 18.3307L29.2829 22.1541C28.6354 22.8016 28.2808 24.0503 28.4813 24.9445L29.5758 29.6774C30.4392 33.4237 28.4504 34.8728 25.1358 32.9149L20.5263 30.1862C19.6938 29.6928 18.3217 29.6928 17.4738 30.1862L12.8642 32.9149C9.56501 34.8728 7.56085 33.4082 8.42418 29.6774L9.51876 24.9445C9.71918 24.0503 9.3646 22.8016 8.7171 22.1541L4.89376 18.3307C2.64293 16.0799 3.36751 13.7982 6.51251 13.2741L11.4304 12.457C12.2475 12.3182 13.2342 11.5936 13.6042 10.8382L16.3175 5.41156C17.7975 2.46698 20.2025 2.46698 21.6671 5.41156Z" stroke="#56BED6" stroke-width="2.3125" stroke-linecap="round" stroke-linejoin="round"/>
</svg>
