<svg width="44" height="44" viewBox="0 0 44 44" fill="none" xmlns="http://www.w3.org/2000/svg">
<path d="M31.1575 7.33325H12.8242C5.80251 7.33325 3.84084 9.01992 3.67584 15.5833C7.21418 15.5833 10.0742 18.4616 10.0742 21.9999C10.0742 25.5382 7.21418 28.3982 3.67584 28.4166C3.84084 34.9799 5.80251 36.6666 12.8242 36.6666H31.1575C38.4908 36.6666 40.3242 34.8332 40.3242 27.4999V16.4999C40.3242 9.16659 38.4908 7.33325 31.1575 7.33325Z" stroke="#56BED6" stroke-width="2.75" stroke-linecap="round" stroke-linejoin="round"/>
<path d="M16.4877 7.33325V13.7499" stroke="#56BED6" stroke-width="2.75" stroke-linecap="round" stroke-linejoin="round"/>
<path d="M16.4877 30.25V36.6667" stroke="#56BED6" stroke-width="2.75" stroke-linecap="round" stroke-linejoin="round"/>
<path d="M27.5458 17.1047L28.6825 19.3964C28.7925 19.6164 29.0125 19.7814 29.2508 19.8181L31.7808 20.1847C32.4042 20.2764 32.6608 21.0464 32.2025 21.4864L30.3692 23.2647C30.1858 23.4297 30.1125 23.6864 30.1492 23.9431L30.5892 26.4547C30.6992 27.078 30.0392 27.5547 29.4892 27.2614L27.2342 26.0697C27.0142 25.9597 26.7392 25.9597 26.5192 26.0697L24.2642 27.2614C23.6958 27.5547 23.0542 27.078 23.1642 26.4547L23.6042 23.9431C23.6408 23.6864 23.5675 23.448 23.3842 23.2647L21.5692 21.4864C21.1108 21.0464 21.3675 20.2764 21.9908 20.1847L24.5208 19.8181C24.7775 19.7814 24.9792 19.6347 25.0892 19.3964L26.2075 17.1047C26.4642 16.5364 27.2708 16.5364 27.5458 17.1047Z" stroke="#56BED6" stroke-width="2.75" stroke-linecap="round" stroke-linejoin="round"/>
</svg>
