<svg width="24" height="24" viewBox="0 0 24 24" fill="none" xmlns="http://www.w3.org/2000/svg">
<path d="M5.74035 16C5.85035 15.51 5.65035 14.81 5.30035 14.46L2.87035 12.03C2.11035 11.27 1.81035 10.46 2.03035 9.76C2.26035 9.06 2.97035 8.58 4.03035 8.4L7.15035 7.88C7.60035 7.8 8.15035 7.4 8.36035 6.99L10.0803 3.54C10.5803 2.55 11.2603 2 12.0003 2C12.7403 2 13.4203 2.55 13.9203 3.54L15.6403 6.99C15.7703 7.25 16.0403 7.5 16.3303 7.67L5.56035 18.44C5.42035 18.58 5.18035 18.45 5.22035 18.25L5.74035 16Z" fill="url(#paint0_linear_476_13750)"/>
<path d="M18.6998 14.46C18.3398 14.82 18.1398 15.51 18.2598 16L18.9498 19.01C19.2398 20.26 19.0598 21.2 18.4398 21.65C18.1898 21.83 17.8898 21.92 17.5398 21.92C17.0298 21.92 16.4298 21.73 15.7698 21.34L12.8398 19.6C12.3798 19.33 11.6198 19.33 11.1598 19.6L8.2298 21.34C7.1198 21.99 6.1698 22.1 5.5598 21.65C5.3298 21.48 5.1598 21.25 5.0498 20.95L17.2098 8.79002C17.6698 8.33002 18.3198 8.12002 18.9498 8.23002L19.9598 8.40002C21.0198 8.58002 21.7298 9.06002 21.9598 9.76002C22.1798 10.46 21.8798 11.27 21.1198 12.03L18.6998 14.46Z" fill="url(#paint1_linear_476_13750)"/>
<defs>
<linearGradient id="paint0_linear_476_13750" x1="1.95996" y1="10.5149" x2="16.3315" y2="10.517" gradientUnits="userSpaceOnUse">
<stop stop-color="#0081DC"/>
<stop offset="0.62" stop-color="#60D0FA"/>
<stop offset="1" stop-color="#62D5D8"/>
</linearGradient>
<linearGradient id="paint1_linear_476_13750" x1="5.0498" y1="15.2829" x2="22.0315" y2="15.2863" gradientUnits="userSpaceOnUse">
<stop stop-color="#0081DC"/>
<stop offset="0.62" stop-color="#60D0FA"/>
<stop offset="1" stop-color="#62D5D8"/>
</linearGradient>
</defs>
</svg>
